<svg xmlns="http://www.w3.org/2000/svg" version="1.1" xmlns:xlink="http://www.w3.org/1999/xlink" xmlns:svgjs="http://svgjs.dev/svgjs" width="1500" height="1500" viewBox="0 0 1500 1500"><rect width="1500" height="1500" fill="#ca3433"></rect><g transform="matrix(0.6666666666666666,0,0,0.6666666666666666,249.39393939393943,629.444232826971)"><svg viewBox="0 0 396 96" data-background-color="#ca3433" preserveAspectRatio="xMidYMid meet" height="363" width="1500" xmlns="http://www.w3.org/2000/svg" xmlns:xlink="http://www.w3.org/1999/xlink"><g id="tight-bounds" transform="matrix(1,0,0,1,0.2400000000000091,-0.17622459251739997)"><svg viewBox="0 0 395.52 96.35244918503479" height="96.35244918503479" width="395.52"><g><svg viewBox="0 0 589.2116823610967 143.5375927486004" height="96.35244918503479" width="395.52"><g transform="matrix(1,0,0,1,193.6916823610967,19.83768467075447)"><svg viewBox="0 0 395.52 103.86222340709145" height="103.86222340709145" width="395.52"><g id="textblocktransform"><svg viewBox="0 0 395.52 103.86222340709145" height="103.86222340709145" width="395.52" id="textblock"><g><svg viewBox="0 0 395.52 103.86222340709145" height="103.86222340709145" width="395.52"><g transform="matrix(1,0,0,1,0,0)"><svg width="395.52" viewBox="4 -37.1 192.73 50.1" height="103.86222340709145" data-palette-color="#ffffff"><path d="M4-25.1Q4-31.35 5.98-34.23 7.95-37.1 12.25-37.1L12.25-37.1Q15.65-37.1 17.6-35.1 19.55-33.1 19.55-29.6L19.55-29.6Q19.55-25.35 16.78-22.93 14-20.5 9.4-20.75L9.4-20.75 7-20.9 7-12.6 14.4-12.6 14.4-9.9 7-9.9 7 13 4 13 4-25.1ZM9.4-23.35Q12.75-23.35 14.65-25.03 16.55-26.7 16.55-29.65L16.55-29.65Q16.55-31.95 15.4-33.18 14.25-34.4 12.15-34.4L12.15-34.4Q9.5-34.4 8.25-32.18 7-29.95 7-25.25L7-25.25 7-23.35 9.4-23.35ZM26.1-4.2Q26.1-3.5 26.57-3.03 27.05-2.55 27.7-2.55L27.7-2.55Q28.7-2.55 29.15-3.4L29.15-3.4 31.35-1.75Q30.95-0.9 29.95-0.33 28.95 0.25 27.7 0.25L27.7 0.25Q25.7 0.25 24.4-1 23.1-2.25 23.1-4.25L23.1-4.25 23.1-25 26.1-25 26.1-4.2ZM24.45-28.25Q23.6-28.25 22.97-28.88 22.35-29.5 22.35-30.35L22.35-30.35Q22.35-31.25 22.97-31.88 23.6-32.5 24.45-32.5L24.45-32.5Q25.35-32.5 25.97-31.88 26.6-31.25 26.6-30.35L26.6-30.35Q26.6-29.5 25.97-28.88 25.35-28.25 24.45-28.25L24.45-28.25ZM34.7-20.75Q34.34-21.6 33.67-22.38 33-23.15 32.25-23.55L32.25-23.55 33.9-25.8Q36.45-24.25 37.84-20.4L37.84-20.4 44.15-3.85 51.95-24.95 54.95-24.95 45.65 0 42.55 0 34.7-20.75ZM69.69 0.5Q65.94 0.5 63.34-1.05 60.74-2.6 59.42-5.33 58.09-8.05 58.09-11.5L58.09-11.5Q58.09-14.9 59.37-18.1 60.64-21.3 63.22-23.35 65.79-25.4 69.49-25.4L69.49-25.4Q71.94-25.4 74.04-24.45 76.14-23.5 77.37-21.75 78.59-20 78.59-17.7L78.59-17.7Q78.59-14 75.44-11.98 72.29-9.95 66.74-10L66.74-10 61.24-10.05Q61.69-6.2 63.82-4.2 65.94-2.2 69.69-2.2L69.69-2.2Q71.94-2.2 73.87-2.83 75.79-3.45 77.59-4.75L77.59-4.75 79.09-2.75Q77.19-1.25 74.77-0.38 72.34 0.5 69.69 0.5L69.69 0.5ZM67.39-12.6Q75.59-12.6 75.59-17.75L75.59-17.75Q75.59-20.25 73.87-21.48 72.14-22.7 69.64-22.7L69.64-22.7Q66.84-22.7 64.92-21.1 62.99-19.5 62.04-17.15 61.09-14.8 61.09-12.6L61.09-12.6 67.39-12.6ZM107.89 0.5Q105.39 0.5 103.04 0.2L103.04 0.2Q100.59-0.1 99.34-0.5L99.34-0.5 99.34-36.3 102.34-36.3 102.34-21.65Q103.59-23.55 105.61-24.48 107.64-25.4 109.94-25.4L109.94-25.4Q113.09-25.4 115.51-23.75 117.94-22.1 119.26-19.15 120.59-16.2 120.59-12.45L120.59-12.45Q120.59-6.8 117.46-3.15 114.34 0.5 107.89 0.5L107.89 0.5ZM107.84-2.2Q113.09-2.2 115.34-5.03 117.59-7.85 117.59-12.4L117.59-12.4Q117.59-15.65 116.56-17.98 115.54-20.3 113.76-21.5 111.99-22.7 109.79-22.7L109.79-22.7Q107.24-22.7 105.04-21.15L105.04-21.15Q102.59-19.45 102.34-16.4L102.34-16.4 102.34-2.65 104.99-2.35Q106.29-2.2 107.84-2.2L107.84-2.2ZM148.89-3.1L151.04-1.4Q150.29-0.35 149.36 0.08 148.44 0.5 147.24 0.5L147.24 0.5Q145.49 0.5 144.16-0.7 142.84-1.9 142.84-3.6L142.84-3.6Q139.39 0.4 134.49 0.4L134.49 0.4Q130.74 0.4 128.64-1.43 126.54-3.25 126.34-6.95L126.34-6.95 126.34-17.65Q126.34-21.6 124.24-23.45L124.24-23.45 126.24-25.45Q127.44-24.7 128.39-23.1 129.34-21.5 129.34-19.65L129.34-19.65 129.34-8.25Q129.34-5.4 130.61-3.85 131.89-2.3 134.79-2.3L134.79-2.3Q137.54-2.3 139.51-3.5 141.49-4.7 142.79-7.3L142.79-7.3 142.84-25 145.84-25 145.79-4.3Q145.79-3.3 146.26-2.78 146.74-2.25 147.44-2.25L147.44-2.25Q148.34-2.25 148.89-3.1L148.89-3.1ZM158.43-4.2Q158.43-3.5 158.91-3.03 159.38-2.55 160.03-2.55L160.03-2.55Q161.03-2.55 161.48-3.4L161.48-3.4 163.68-1.75Q163.28-0.9 162.28-0.33 161.28 0.25 160.03 0.25L160.03 0.25Q158.03 0.25 156.73-1 155.43-2.25 155.43-4.25L155.43-4.25 155.43-36.3 158.43-36.3 158.43-4.2ZM171.08-4.2Q171.08-3.5 171.56-3.03 172.03-2.55 172.68-2.55L172.68-2.55Q173.68-2.55 174.13-3.4L174.13-3.4 176.33-1.75Q175.93-0.9 174.93-0.33 173.93 0.25 172.68 0.25L172.68 0.25Q170.68 0.25 169.38-1 168.08-2.25 168.08-4.25L168.08-4.25 168.08-36.3 171.08-36.3 171.08-4.2ZM187.88 0.6Q182.83 0.6 178.48-3.3L178.48-3.3 180.13-5.3Q182.03-3.75 183.9-2.93 185.78-2.1 187.93-2.1L187.93-2.1Q190.63-2.1 192.15-3.38 193.68-4.65 193.68-6.85L193.68-6.85Q193.68-8.25 193-9.13 192.33-10 191.2-10.55 190.08-11.1 187.18-12.3L187.18-12.3Q184.53-13.4 183.08-14.2 181.63-15 180.78-16.18 179.93-17.35 179.93-19.15L179.93-19.15Q179.93-22.1 182.03-23.88 184.13-25.65 187.63-25.65L187.63-25.65Q189.43-25.65 191.2-25.15 192.98-24.65 194.23-23.7L194.23-23.7 192.98-21.55Q190.68-22.95 187.78-22.95L187.78-22.95Q185.48-22.95 184.23-22.05 182.98-21.15 182.98-19.5L182.98-19.5Q182.98-18.25 183.65-17.45 184.33-16.65 185.4-16.13 186.48-15.6 188.98-14.6L188.98-14.6Q191.83-13.45 193.4-12.53 194.98-11.6 195.85-10.28 196.73-8.95 196.73-7L196.73-7Q196.73-3.55 194.3-1.48 191.88 0.6 187.88 0.6L187.88 0.6Z" opacity="1" transform="matrix(1,0,0,1,0,0)" fill="#ffffff" class="wordmark-text-0" data-fill-palette-color="primary" id="text-0"></path></svg></g></svg></g></svg></g></svg></g><g><svg viewBox="0 0 169.17230410804416 143.5375927486004" height="143.5375927486004" width="169.17230410804416"><g><svg xmlns="http://www.w3.org/2000/svg" xmlns:xlink="http://www.w3.org/1999/xlink" version="1.1" x="0" y="0" viewBox="0.42199999999998505 11.05089657139817 99.27154862176765 84.22891201206153" enable-background="new 0 0 100 100" xml:space="preserve" height="143.5375927486004" width="169.17230410804416" class="icon-icon-0" data-fill-palette-color="accent" id="icon-0"><path fill-rule="evenodd" clip-rule="evenodd" d="M71.312 62.629c-0.607 0.13-1.148 0.191-1.644 0.374-0.267 0.099-0.547 0.363-0.666 0.625-0.893 1.97-1.742 3.96-2.621 5.937-0.106 0.238-0.298 0.446-0.474 0.647-0.664 0.75-1.1 1.59-1.234 2.603-0.14 1.053-0.515 1.989-1.315 2.781-0.963 0.953-1.271 2.287-1.699 3.529-0.771 2.23-0.609 4.404 0.406 6.54 0.353 0.742 0.599 1.542 0.815 2.337 0.055 0.2-0.155 0.661-0.313 0.697-0.591 0.134-0.512 0.605-0.631 0.988-0.336 1.089-0.598 2.211-1.052 3.249-0.227 0.517-0.738 1.013-1.246 1.28-1.917 1.013-3.98 1.269-6.116 0.91-0.184-0.032-0.344-0.168-0.523-0.236-0.314-0.118-0.635-0.314-0.952-0.313-0.895 0-1.242-0.318-0.929-1.143 0.459-1.2 1.043-2.354 1.565-3.532 0.155-0.346 0.238-0.732 0.436-1.052 0.315-0.508 0.688-0.981 1.058-1.451 2.072-2.654 3.543-5.6 4.324-8.879 0.323-1.357 0.302-2.707-0.154-4.035-0.505-1.471-0.289-2.941-0.004-4.409 0.201-1.049 0.249-2.081-0.231-3.156-0.591 0.213-1.209 0.359-1.754 0.646-1.42 0.748-2.809 0.599-4.224 0.013-1.504-0.621-3.003-1.185-4.314-2.249-0.897-0.729-2.116-1.062-3.212-1.583-0.69 1.341-1.362 2.751-2.135 4.104-0.344 0.602-0.903 1.076-1.342 1.627-0.295 0.371-0.65 0.739-0.803 1.17-0.427 1.207-0.979 2.283-1.85 3.273-1.845 2.097-2.898 4.548-2.736 7.429 0.071 1.266 0.245 2.563 0.05 3.799-0.406 2.566-1.775 3.894-4.484 4.237-0.916 0.115-1.863 0.066-2.788-0.005-0.726-0.056-1.45-0.225-2.154-0.416-0.478-0.127-0.379-0.527-0.174-0.831 0.615-0.909 1.271-1.79 1.885-2.701 0.165-0.245 0.237-0.551 0.354-0.828 0.073-0.174 0.103-0.412 0.233-0.503 2.18-1.53 3.394-3.758 4.257-6.159 0.598-1.665 0.841-3.405 0.569-5.244-0.202-1.369 0.089-2.808 0.114-4.217 0.012-0.673 0.071-1.407-0.163-2.008-0.668-1.706-0.735-3.445-0.455-5.197 0.184-1.156-0.128-2.176-0.752-3.034-1.689-2.324-2.576-4.958-3.2-7.706-0.294-1.297-0.927-2.397-1.753-3.412-0.244-0.298-0.451-0.626-0.702-0.979-1.294 0.055-2.645 0.172-3.897-0.482-0.042-0.021-0.101-0.058-0.135-0.044-1.409 0.546-2.743-0.012-4.067-0.337-0.966-0.237-2.041-0.494-2.775-1.098-0.849-0.697-1.436-1.748-2.022-2.716-0.388-0.641-0.091-1.297 0.448-1.773 0.458-0.404 0.634-0.879 0.657-1.48 0.073-1.923 0.481-3.762 1.383-5.49 0.525-1.006-0.189-1.974-1.293-1.9-0.954 0.063-1.895 0.001-2.766-0.483-0.629-0.35-1.006-0.865-1.035-1.568-0.051-1.203 0.335-2.285 1.199-3.121 0.308-0.297 0.82-0.384 1.32-0.6-0.167-0.043-0.282-0.104-0.394-0.096-2.693 0.18-5.376 0.197-8.005-0.539-1.914-0.534-3.619-1.373-4.396-3.375-0.194-0.5-0.256-1.052-0.379-1.58 0.124-0.092 0.248-0.183 0.372-0.275 0.141 0.258 0.235 0.562 0.431 0.769 1.489 1.58 3.317 2.162 5.453 1.796 2.529-0.434 5.065-0.827 7.582-1.316 1.06-0.207 2.198-0.284 3.073-1.056 0.197-0.174 0.388-0.369 0.527-0.59 0.754-1.204 1.662-2.189 3.046-2.727 1.49-0.579 2.926-1.296 4.398-1.958-3.09-0.906-6.167-1.808-9.245-2.71 0.013-0.084 0.025-0.169 0.038-0.253 0.346-0.033 0.691-0.096 1.036-0.093 4.028 0.042 8.058 0.074 12.086 0.159 0.616 0.013 1.319 0.073 1.594 0.889 0.067 0.198 0.462 0.287 0.71 0.419 0.038 0.02 0.097 0.001 0.146 0.004 0.713 0.053 1.575-0.276 1.985 0.627 0.307 0.675 0.515 1.395 0.763 2.096 0.032 0.089 0.038 0.188 0.045 0.223 1.572-0.195 3.114-0.529 4.66-0.543 1.75-0.016 3.504 0.249 5.255 0.403 1.581 0.138 3.157 0.345 4.741 0.429 2.659 0.142 5.362 0.053 7.913 0.916 1.347 0.457 2.721 0.592 4.081 0.884 3.251 0.7 5.895 2.36 7.566 5.284 0.903 1.579 2.153 2.711 3.602 3.749 1.806 1.295 3.521 2.718 5.234 4.135 0.501 0.415 0.943 0.949 1.27 1.512 0.424 0.725 0.982 1.063 1.8 1.151 0.991 0.108 1.97 0.342 2.961 0.455 0.374 0.043 0.79-0.039 1.151-0.169 0.979-0.352 1.935-0.772 2.909-1.143 1.911-0.729 4.12 1.096 4.762 2.829 1.146 3.104 1.59 6.348 1.865 9.615 0.104 1.197 0.513 2.083 1.553 2.708 1.212 0.729 2.101 1.77 2.521 3.128 0.202 0.662 0.205 1.386 0.302 2.109 0.325 0.07 0.68 0.146 1.063 0.227 0.131 0.732-0.33 1.117-0.834 1.397-1.064 0.592-2.215 0.74-3.389 0.38-0.519-0.161-0.739 0.02-0.819 0.485-0.47 2.798-1.499 5.491-1.27 8.419 0.127 1.663-0.207 3.354 0.295 5.013 0.164 0.542-0.045 1.06-0.396 1.566-0.315 0.453-0.511 1.054-0.573 1.608-0.092 0.822-0.054 1.664-0.008 2.494 0.041 0.739-0.195 1.345-0.703 1.851-0.409 0.41-0.418 0.858-0.199 1.345 0.22 0.489 0.441 0.98 0.687 1.459 0.739 1.446 0.652 2.895 0.041 4.354-0.037 0.092-0.108 0.179-0.111 0.27-0.031 1.261-1.018 1.5-1.919 1.609-0.88 0.107-1.798-0.052-2.695-0.114-0.438-0.03-0.87-0.135-1.306-0.155-0.511-0.026-0.788-0.228-0.725-0.769 0.153-1.283 0.459-2.501 1.2-3.6 0.721-1.072 1.398-2.18 2.017-3.315 0.202-0.368 0.165-0.871 0.22-1.314 0.113-0.888 0.226-1.774 0.314-2.664 0.132-1.329 0.319-2.661 0.323-3.993 0.002-0.489-0.35-1.077-0.713-1.452-1.328-1.37-2.313-2.946-3.207-4.618-0.745-1.394-1.65-2.703-2.497-4.041-0.113-0.181-0.288-0.336-0.461-0.468-0.652-0.496-1.329-0.327-1.865 0.255-0.753 0.818-0.991 1.619-0.443 2.65 0.192 0.363 0.226 0.862 0.192 1.287-0.127 1.508-1.426 2.76-3.376 1.464-0.443 1.033-1.148 2.032-1.239 3.085-0.09 1.023-0.534 1.821-0.811 2.728-0.197 0.652-0.126 1.408-0.072 2.109 0.083 1.096-0.087 2.067-0.842 2.93-0.229 0.263-0.36 0.722-0.338 1.077 0.066 1.044 0.17 2.095 0.376 3.118 0.369 1.839-0.611 3.865-2.942 3.644-1.093-0.104-2.186-0.192-3.275-0.326-0.132-0.017-0.276-0.266-0.332-0.434-0.036-0.111 0.084-0.269 0.129-0.405 0.704-2.115 1.999-3.86 3.46-5.494 0.567-0.634 0.916-1.226 0.598-2.151-0.162-0.474 0.059-1.093 0.155-1.637 0.146-0.836 0.378-1.66 0.483-2.501 0.049-0.388-0.11-0.805-0.184-1.207-0.036-0.191-0.157-0.387-0.13-0.563 0.241-1.672-0.647-3.123-0.9-4.696C71.523 63.443 71.415 63.071 71.312 62.629zM92.003 42.49c-0.307-2.271-0.582-4.52-1.579-6.576-0.341-0.706-0.928-1.426-1.843-1.319-0.545 0.063-1.05 0.469-1.546 0.708C88.747 37.779 90.358 40.111 92.003 42.49zM13.888 24.908c-0.006 0.058-0.013 0.116-0.021 0.174 0.631 0.098 1.261 0.196 1.957 0.306-0.043-0.282-0.072-0.464-0.108-0.699C15.083 24.765 14.486 24.836 13.888 24.908z" fill="#ffffff" data-fill-palette-color="accent"></path></svg></g></svg></g></svg></g><defs></defs></svg><rect width="395.52" height="96.35244918503479" fill="none" stroke="none" visibility="hidden"></rect></g></svg></g></svg>